# xmcd
#
# Track frame offsets:
# 150
# 15627
# 28930
# 45537
# 57020
# 72707
# 88225
# 103800
# 116950
# 132895
# 146280
# 163390
# 177107
# 191455
# 206500
# 219450
# 235715
# 245602
# 260325
# 271285
#
# Disc length: 3870 seconds
#
#
# Revision: 0
# Processed by: cddbd v1.5.1PL2 Copyright (c) Steve Scherf et al.
# Submitted via: FreeRIP 2.943 
#
DISCID=2b0f1c14
DTITLE=Super Country Groups - Super Groups, Super Hits
DYEAR=1995
DGENRE=Country
TTITLE0=Lucky Moon - The Oak Ridge Boys
TTITLE1=Houston - Larry Gatlin and The Gatlin Bros. Band
TTITLE2=Jukebox In My Mind - Alabama
TTITLE3=Golden Tears - Dave and Sugar
TTITLE4=Kids Of The Baby Boom - The Bellamy Bros.
TTITLE5=Who's Lonely Now - Highway 101
TTITLE6=Elizabeth - The Statler Bros.
TTITLE7=Chains Of Gold - Sweethearts Of The Rodeo
TTITLE8=Modern Day Romance - The Nitty Gritty Dirt Band
TTITLE9=Thank God For The Radio - The Kendalls
TTITLE10=Wheels - Restless Heart
TTITLE11=Fool Such As I - Bailey and The Boys
TTITLE12=Rock My Baby - Shenendoah
TTITLE13=Meet In The Middle - Diamond Rio
TTITLE14=Mama's Never Seen Those Eyes - The Forester Sisters
TTITLE15=Nobody's Talking - Exile
TTITLE16=Pins and Needles - The Whites
TTITLE17=The Letter That Johnny Walker Read -Asleep At The Wheel
TTITLE18=Don't Bother To Knock - Jim Ed Brown and Helen Cornelius
TTITLE19=I Still Believe In You - The Desert Rose Band
EXTD=Reader´s Digest - Super Groups, Super Hits
EXTT0=
EXTT1=
EXTT2=
EXTT3=
EXTT4=
EXTT5=
EXTT6=
EXTT7=
EXTT8=
EXTT9=
EXTT10=
EXTT11=
EXTT12=
EXTT13=
EXTT14=
EXTT15=
EXTT16=
EXTT17=
EXTT18=
EXTT19=
PLAYORDER=
